<?xml version="1.0" encoding="UTF-8" standalone="no"?>
<!-- Generator: Adobe Illustrator 18.0.0, SVG Export Plug-In . SVG Version: 6.00 Build 0)  -->

<svg
   xmlns:dc="http://purl.org/dc/elements/1.1/"
   xmlns:cc="http://creativecommons.org/ns#"
   xmlns:rdf="http://www.w3.org/1999/02/22-rdf-syntax-ns#"
   xmlns:svg="http://www.w3.org/2000/svg"
   xmlns="http://www.w3.org/2000/svg"
   xmlns:sodipodi="http://sodipodi.sourceforge.net/DTD/sodipodi-0.dtd"
   xmlns:inkscape="http://www.inkscape.org/namespaces/inkscape"
   version="1.1"
   id="Capa_1"
   x="0px"
   y="0px"
   viewBox="0 0 48 48"
   xml:space="preserve"
   sodipodi:docname="notebook.svg"
   width="48"
   height="48"
   inkscape:version="0.92.1 r15371"
   inkscape:export-filename="D:\Git Repos\search-in-google-scholar\icons\notebook.png"
   inkscape:export-xdpi="96"
   inkscape:export-ydpi="96"><metadata
     id="metadata3735"><rdf:RDF><cc:Work
         rdf:about=""><dc:format>image/svg+xml</dc:format><dc:type
           rdf:resource="http://purl.org/dc/dcmitype/StillImage" /><dc:title></dc:title></cc:Work></rdf:RDF></metadata><defs
     id="defs3733" /><sodipodi:namedview
     pagecolor="#ffffff"
     bordercolor="#666666"
     borderopacity="1"
     objecttolerance="10"
     gridtolerance="10"
     guidetolerance="10"
     inkscape:pageopacity="0"
     inkscape:pageshadow="2"
     inkscape:window-width="1888"
     inkscape:window-height="1057"
     id="namedview3731"
     showgrid="false"
     inkscape:zoom="5.4130243"
     inkscape:cx="-11.562244"
     inkscape:cy="24.02404"
     inkscape:window-x="24"
     inkscape:window-y="-8"
     inkscape:window-maximized="1"
     inkscape:current-layer="Capa_1" /><g
     id="g3698"
     transform="matrix(0.82759,0,0,0.82759,-9e-5,-2.2e-4)"><rect
       x="1"
       style="fill:#cbb292"
       width="44"
       height="58"
       id="rect3680"
       y="0" /><rect
       x="1"
       style="fill:#7f6e5d"
       width="8"
       height="58"
       id="rect3682"
       y="0" /><rect
       x="16"
       y="10"
       style="fill:#efebde"
       width="22"
       height="12"
       id="rect3684" /><rect
       x="20"
       y="13"
       style="fill:#d5d0bb"
       width="14"
       height="2"
       id="rect3686" /><rect
       x="20"
       y="17"
       style="fill:#d5d0bb"
       width="14"
       height="2"
       id="rect3688" /><g
       id="g3696"><circle
         style="fill:#d0e8f9"
         cx="42.777"
         cy="42.813999"
         r="9.7959995"
         id="circle3690" /><path
         style="fill:#eaf6fd"
         d="M 46.33,33.693 33.656,46.367 c 0.706,1.81 1.93,3.357 3.495,4.459 L 50.789,37.188 C 49.687,35.623 48.14,34.399 46.33,33.693 Z"
         id="path3692"
         inkscape:connector-curvature="0" /><path
         style="fill:#8697cb"
         d="m 56.723,56.309 -5.97,-6.244 c 1.746,-1.919 2.82,-4.458 2.82,-7.251 0,-5.953 -4.843,-10.796 -10.796,-10.796 -5.953,0 -10.796,4.843 -10.796,10.796 0,5.953 4.843,10.796 10.796,10.796 2.442,0 4.689,-0.824 6.499,-2.196 l 6.001,6.276 C 55.474,57.896 55.736,58 56,58 c 0.249,0 0.497,-0.092 0.691,-0.277 0.399,-0.382 0.414,-1.015 0.032,-1.414 z M 33.982,42.814 c 0,-4.85 3.946,-8.796 8.796,-8.796 4.85,0 8.796,3.946 8.796,8.796 0,4.85 -3.946,8.796 -8.796,8.796 -4.85,0 -8.796,-3.945 -8.796,-8.796 z"
         id="path3694"
         inkscape:connector-curvature="0" /></g></g><g
     id="g3700"
     transform="matrix(0.82759,0,0,0.82759,-9e-5,-2.2e-4)" /><g
     id="g3702"
     transform="matrix(0.82759,0,0,0.82759,-9e-5,-2.2e-4)" /><g
     id="g3704"
     transform="matrix(0.82759,0,0,0.82759,-9e-5,-2.2e-4)" /><g
     id="g3706"
     transform="matrix(0.82759,0,0,0.82759,-9e-5,-2.2e-4)" /><g
     id="g3708"
     transform="matrix(0.82759,0,0,0.82759,-9e-5,-2.2e-4)" /><g
     id="g3710"
     transform="matrix(0.82759,0,0,0.82759,-9e-5,-2.2e-4)" /><g
     id="g3712"
     transform="matrix(0.82759,0,0,0.82759,-9e-5,-2.2e-4)" /><g
     id="g3714"
     transform="matrix(0.82759,0,0,0.82759,-9e-5,-2.2e-4)" /><g
     id="g3716"
     transform="matrix(0.82759,0,0,0.82759,-9e-5,-2.2e-4)" /><g
     id="g3718"
     transform="matrix(0.82759,0,0,0.82759,-9e-5,-2.2e-4)" /><g
     id="g3720"
     transform="matrix(0.82759,0,0,0.82759,-9e-5,-2.2e-4)" /><g
     id="g3722"
     transform="matrix(0.82759,0,0,0.82759,-9e-5,-2.2e-4)" /><g
     id="g3724"
     transform="matrix(0.82759,0,0,0.82759,-9e-5,-2.2e-4)" /><g
     id="g3726"
     transform="matrix(0.82759,0,0,0.82759,-9e-5,-2.2e-4)" /><g
     id="g3728"
     transform="matrix(0.82759,0,0,0.82759,-9e-5,-2.2e-4)" /></svg>